<svg width="32" height="32" viewBox="0 0 32 32" fill="none" xmlns="http://www.w3.org/2000/svg">
<path d="M16 22C17.5913 22 19.1174 21.3679 20.2426 20.2426C21.3679 19.1174 22 17.5913 22 16C22 14.4087 21.3679 12.8826 20.2426 11.7574C19.1174 10.6321 17.5913 10 16 10C14.4087 10 12.8826 10.6321 11.7574 11.7574C10.6321 12.8826 10 14.4087 10 16C10 17.5913 10.6321 19.1174 11.7574 20.2426C12.8826 21.3679 14.4087 22 16 22V22ZM17 1C17 0.734784 16.8946 0.48043 16.7071 0.292893C16.5196 0.105357 16.2652 0 16 0C15.7348 0 15.4804 0.105357 15.2929 0.292893C15.1054 0.48043 15 0.734784 15 1V4.04C12.1724 4.27648 9.51997 5.50713 7.51355 7.51355C5.50713 9.51997 4.27648 12.1724 4.04 15H1C0.734784 15 0.48043 15.1054 0.292893 15.2929C0.105357 15.4804 0 15.7348 0 16C0 16.2652 0.105357 16.5196 0.292893 16.7071C0.48043 16.8946 0.734784 17 1 17H4.04C4.27648 19.8276 5.50713 22.48 7.51355 24.4864C9.51997 26.4929 12.1724 27.7235 15 27.96V31C15 31.2652 15.1054 31.5196 15.2929 31.7071C15.4804 31.8946 15.7348 32 16 32C16.2652 32 16.5196 31.8946 16.7071 31.7071C16.8946 31.5196 17 31.2652 17 31V27.96C19.8275 27.7231 22.4797 26.4924 24.486 24.486C26.4924 22.4797 27.7231 19.8275 27.96 17H31C31.2652 17 31.5196 16.8946 31.7071 16.7071C31.8946 16.5196 32 16.2652 32 16C32 15.7348 31.8946 15.4804 31.7071 15.2929C31.5196 15.1054 31.2652 15 31 15H27.96C27.7235 12.1724 26.4929 9.51997 24.4864 7.51355C22.48 5.50713 19.8276 4.27648 17 4.04V1ZM16 26C13.3478 26 10.8043 24.9464 8.92893 23.0711C7.05357 21.1957 6 18.6522 6 16C6 13.3478 7.05357 10.8043 8.92893 8.92893C10.8043 7.05357 13.3478 6 16 6C18.6522 6 21.1957 7.05357 23.0711 8.92893C24.9464 10.8043 26 13.3478 26 16C26 18.6522 24.9464 21.1957 23.0711 23.0711C21.1957 24.9464 18.6522 26 16 26Z" fill="#FDFFF5"/>
</svg>
